<?xml version="1.0" standalone="no"?>
<!DOCTYPE svg PUBLIC "-//W3C//DTD SVG 20010904//EN"
 "http://www.w3.org/TR/2001/REC-SVG-20010904/DTD/svg10.dtd">
<svg version="1.0" xmlns="http://www.w3.org/2000/svg"
 width="238.000000pt" height="40.000000pt" viewBox="0 0 238.000000 40.000000"
 preserveAspectRatio="xMidYMid meet">

<g transform="translate(0.000000,40.000000) scale(0.100000,-0.100000)"
fill="#000000" stroke="none">
<path d="M234 291 c8 -9 27 -43 44 -76 l30 -60 -21 -40 -20 -40 -43 90 c-24
50 -43 100 -43 113 -1 18 -7 22 -31 22 l-30 0 67 -135 c37 -74 70 -135 73
-135 3 0 17 24 32 52 l25 53 30 -58 29 -59 58 124 c32 67 67 133 78 145 l20
21 -35 0 c-27 0 -34 -4 -30 -16 3 -14 -68 -196 -82 -210 -6 -6 -45 76 -45 93
0 18 36 93 55 115 12 13 10 15 -15 15 -20 0 -28 -5 -27 -16 1 -19 -23 -79 -32
-79 -8 0 -31 60 -31 81 0 9 -12 14 -35 15 -31 0 -33 -1 -21 -15z"/>
<path d="M662 301 c-67 -17 -120 -92 -108 -155 14 -72 73 -116 156 -116 90 0
150 48 157 127 9 102 -91 172 -205 144z m107 -24 c52 -26 80 -122 52 -176 -17
-30 -70 -61 -106 -61 -65 0 -125 65 -125 137 0 36 34 91 63 103 32 13 88 12
116 -3z"/>
<path d="M1300 286 c-10 -16 -10 -18 7 -11 10 4 37 10 61 12 l43 6 -3 -132 -3
-131 26 0 c25 0 26 1 18 47 -9 58 -11 160 -3 191 5 18 13 22 45 22 21 0 41 -5
45 -11 4 -8 9 -7 15 2 5 8 9 16 9 19 0 3 -56 5 -124 5 -111 0 -126 -2 -136
-19z"/>
<path d="M1661 288 c6 -11 9 -71 7 -138 l-3 -120 26 0 c25 0 25 0 18 63 -4 34
-4 66 0 70 4 4 46 7 92 5 l84 -3 3 -53 c2 -31 -2 -60 -9 -68 -9 -12 -5 -14 25
-14 33 0 36 2 26 19 -13 24 -13 216 -1 240 8 14 5 17 -24 17 -31 0 -32 -2 -24
-24 5 -13 9 -41 9 -63 l0 -40 -92 3 -93 3 0 30 c1 17 4 44 7 60 6 29 5 30 -27
31 -30 0 -33 -2 -24 -18z"/>
<path d="M2065 265 c65 -82 77 -110 73 -175 -3 -58 -2 -60 22 -60 25 0 25 1
22 72 l-2 73 53 65 c48 59 51 65 31 66 -15 1 -24 -5 -28 -20 -3 -12 -20 -39
-39 -61 l-34 -39 -31 46 c-18 26 -32 53 -32 61 0 9 -11 13 -34 13 l-33 -1 32
-40z"/>
<path d="M988 179 c2 -82 -1 -125 -9 -135 -9 -12 -6 -14 23 -14 l35 0 -8 43
c-14 71 -12 77 21 77 23 0 37 -10 65 -47 46 -60 81 -83 125 -82 l35 0 -34 12
c-22 7 -52 33 -78 65 l-44 54 26 23 c31 29 33 77 5 105 -16 16 -33 20 -92 20
l-73 0 3 -121z m127 97 c21 -15 25 -67 5 -90 -8 -10 -29 -16 -56 -16 -42 0
-44 1 -44 29 0 16 3 43 6 60 6 27 11 31 38 31 18 0 41 -6 51 -14z"/>
</g>
</svg>
