<?xml version="1.0" encoding="utf-8"?>
<!-- Generator: Adobe Illustrator 23.0.3, SVG Export Plug-In . SVG Version: 6.00 Build 0)  -->
<svg version="1.1" id="Layer_1" xmlns="http://www.w3.org/2000/svg" xmlns:xlink="http://www.w3.org/1999/xlink" x="0px" y="0px"
	 width="259px" height="58px" viewBox="0 0 259 58" style="enable-background:new 0 0 259 58;" xml:space="preserve">
<style type="text/css">
	.st0{opacity:0.9;}
	.st1{fill:#010101;}
	.st2{fill:#2A76B7;}
	.st3{fill:#FFFFFF;}
</style>
<g>
	<g class="st0">
		<path class="st1" d="M187.8,35.3c1-1.8,2.4-3.9,2.4-6.2v-1.3c0-5.9-6.5-9.9-12.4-9.9h-19.6v40.2h22.4c5.9,0,10.8-5.6,10.8-11.5V44
			C191.5,40.4,190.5,37.2,187.8,35.3z M177.7,26.4c1.7,0,2.1-0.1,2.1,1.6v2.3c0,1.7-0.5,3.4-2.1,3.4H167v-7.2H177.7z M182.8,46.5
			c0,1.6-0.6,2.9-2.3,2.9H167v-7.2h13.5c1.7,0,2.3,0.4,2.3,2V46.5z"/>
		<path class="st1" d="M204.5,28c0-1.7,0.7-1.6,2.3-1.6h14.8l2.4-8.5h-17.3c-5.9,0-10.9,4-10.9,9.9v18.8c0,5.9,5,11.5,10.9,11.5
			h17.8v-8.7h-17.7c-1.6,0-2.3-1.2-2.3-2.9v-4.4h20v-8.5h-20V28z"/>
		<polygon class="st1" points="227.7,17.8 227.7,26.4 239,26.4 239,58.1 247.5,58.1 247.5,26.4 259,26.4 259,17.8 		"/>
	</g>
	<g class="st0">
		<g class="st0">
			<path class="st1" d="M63.2,35.7c1-1.8,1.6-3.9,1.6-6v-1.3c0-5.8-5-10.6-10.8-10.6h-1C71,5.6,86.9,0.9,86.9,0.9
				S68.5,2.4,46.4,15.1c-1.6,0.9-3.1,1.8-4.6,2.8h-7v4.6c-11.1,7.8-17.3,14.4-17.3,14.4L1.1,24.1l16.3,32.5c0,0,8.8-13.3,17.3-23.1
				V58h22.1c5.8,0,10.8-5.4,10.8-11.2v-2.6C67.6,40.7,65.9,37.6,63.2,35.7z M57.6,28.5v2.2c0,1.6-2.1,2.7-3.7,2.7H43.4v-7h10.5
				C55.5,26.5,57.6,26.9,57.6,28.5z M56.7,49.3H43.4v-7.3h13.3c1.6,0,0.9,0.7,0.9,2.3v2.3C57.6,48.3,58.3,49.3,56.7,49.3z"/>
		</g>
		<g class="st0">
			<path class="st1" d="M95,23.4H77.2L74.9,32h18.6c0.9,0,1.5-0.4,1.5,0.5v3.8l-16,0c-4.3,0-8.2,3.5-8.2,7.8v5.4
				c0,4.3,4.5,8.4,8.8,8.4h24.1V31C103.6,26.7,99.4,23.4,95,23.4z M95,49.3H81.1c-0.9,0-1.7-0.4-1.7-1.3v-2.3c0-0.8,0.8-1.5,1.6-1.5
				l14-0.1V49.3z"/>
		</g>
		<g class="st0">
			<path class="st1" d="M131.7,23.4h-14.9v-10h-8.7V58h23.6c4.3,0,8-4.1,8-8.4V31C139.6,26.7,136,23.4,131.7,23.4z M130.1,49.3
				h-13.4V30.7h13.4c0.9,0,0.9,1,0.9,1.9v15.5C131,48.9,131,49.3,130.1,49.3z"/>
		</g>
		<g class="st0">
			<polygon class="st1" points="145.2,56.7 152.5,56.7 152.5,21 145.2,24.8 			"/>
		</g>
		<g class="st0">
			<polygon class="st1" points="145.2,14.1 145.2,21.9 152.5,18.1 152.5,14.1 			"/>
		</g>
	</g>
	<path class="st2" d="M0,23.2l16.3,32.5c0,0,14-21.3,24-29.8C62.3,6.9,85.8,0,85.8,0S67.4,1.5,45.3,14.1c-18.4,10.5-29,21.8-29,21.8
		L0,23.2z"/>
	<g>
		<path class="st3" d="M61.9,34.3c1-1.8,1.6-3.9,1.6-6v-1.3c0-5.8-5.1-10.8-10.9-10.8H33.3v40.4h22.1c5.8,0,10.9-5.4,10.9-11.2v-2.6
			C66.3,39.3,64.6,36.1,61.9,34.3z M52.5,24.9c1.6,0,3.7,0.6,3.7,2.2v2.2c0,1.6-2,2.6-3.7,2.6H41.6v-7H52.5z M56.1,45.3
			c0,1.6,0.7,2.8-0.9,2.8H41.6v-7.5h13.6c1.6,0,0.9,0.7,0.9,2.4V45.3z"/>
		<path class="st3" d="M93.6,22.1H75.8l-2.3,8.5h18.6c0.9,0,1.5-0.4,1.5,0.5v3.8l-16.1,0c-4.3,0-8.3,3.5-8.3,7.8v5.4
			c0,4.3,4.7,8.4,9,8.4h24.2v-27C102.3,25.2,97.9,22.1,93.6,22.1z M79.7,48.1c-0.9,0-1.8-0.6-1.8-1.5v-2.3c0-0.8,0.8-1.5,1.7-1.5
			l14.1-0.1v5.5H79.7z"/>
		<path class="st3" d="M130.2,22.1h-15.1V11.9h-8.7v44.7h23.9c4.3,0,8.1-4.1,8.1-8.4V29.6C138.3,25.2,134.6,22.1,130.2,22.1z
			 M129.6,46.6c0,0.9,0,1.5-0.9,1.5h-13.6V29.1h13.6c0.9,0,0.9,1.1,0.9,2V46.6z"/>
		<path class="st3" d="M151.3,55.9V19.5l-7.7,3.8v32.5H151.3z"/>
		<path class="st3" d="M143.6,12v8.4l7.7-3.8V12H143.6z"/>
	</g>
	<g>
		<path class="st2" d="M186.2,33.8c1-1.8,2.1-3.9,2.1-6.2v-1.3c0-5.9-6-10.2-11.9-10.2H157v40.4h22.2c5.9,0,11-5.5,11-11.4v-2.6
			C190.2,39,188.9,35.7,186.2,33.8z M176.2,24.9c1.7,0,2.3,0,2.3,1.6v2.3c0,1.7-0.6,3.1-2.3,3.1h-10.7v-7H176.2z M181.5,45.1
			c0,1.6-0.8,3-2.5,3h-13.5v-7.5H179c1.7,0,2.5,0.4,2.5,2.1V45.1z"/>
		<path class="st2" d="M203,26.5c0-1.7,0.7-1.6,2.3-1.6h14.8l2.4-8.7h-17.3c-5.9,0-11,4.3-11,10.2v18.8c0,5.9,5,11.4,11,11.4H223
			v-8.5h-17.7c-1.6,0-2.3-1.4-2.3-3v-4.4h20v-8.7h-20V26.5z"/>
		<polygon class="st2" points="225.8,16.1 225.8,24.9 237.7,24.9 237.7,56.6 246.2,56.6 246.2,24.9 257.7,24.9 257.7,16.1 		"/>
	</g>
</g>
</svg>
